# xmcd
#
# Track frame offsets:
#	150
#	28705
#	52489
#	73179
#	89058
#	110860
#	126618
#	139073
#	156492
#	172521
#	192054
#	216000
#	231002
#	249418
#
# Disc length: 3760 seconds
#
# Revision: 1
# Processed by: cddbd v1.5.1PL0 Copyright (c) Steve Scherf et al.
# Submitted via: audiograbber 1.83.01
#
DISCID=d60eae0e
DTITLE=Compilation - More Good Wiskey Blues
DYEAR=1900
DGENRE=Blues
TTITLE0=Metropolitan Blues All Stars - Devil gets his Due
TTITLE1=Tim Wagoner and Wild Blue Wonder - Make it Rain
TTITLE2=Hypnotics - Blues Patrol
TTITLE3=Dean Hall - I know Something ´bout the Blues
TTITLE4=Metropolitan Blues All Stars - Strom comin´ through
TTITLE5=Planet Rockers - Tennessee Woman
TTITLE6=Chip Vandiver - Love ain´t never satisfied
TTITLE7=Dean Hall - My Milkman was Freddy King
TTITLE8=Buddy Flett and the Bluebirds - Blues in a Honky Tonk Key
TTITLE9=Johnny Neel - While She´s in Love
TTITLE10=Metropolitan Blues All Stars - Bad Situation
TTITLE11=Buddy Flett and the Bluebirds - Third House on the Left
TTITLE12=Tim Wagoner and Wild Blue Yonder - My old Friend the Blues
TTITLE13=Lost in Detroit - I wand make Love to you
EXTD=
EXTT0=
EXTT1=
EXTT2=
EXTT3=
EXTT4=
EXTT5=
EXTT6=
EXTT7=
EXTT8=
EXTT9=
EXTT10=
EXTT11=
EXTT12=
EXTT13=
PLAYORDER=
